# xmcd CD database file
#
# Track frame offsets:
#	150
#	17664
#	37989
#	55017
#	73894
#	93704
#	111872
#	133845
#	155779
#	171049
#	189325
#	205706
#	222379
#	237653
#	261889
#	276911
#	291028
#
# Disc length: 4045 seconds
#
# Revision: 0
# Processed by: cddbd v1.4PL0 Copyright (c) Steve Scherf et al.
# Submitted via: CDex 1.50Beta7
#
DISCID=060fcb11
DTITLE=John Mayer - Room For Squares sp
DYEAR=2002
DGENRE=Blues
TTITLE0=No Such Thing
TTITLE1=Why Georgia
TTITLE2=My Stupid Mouth
TTITLE3=Your Body Is A Wonderland
TTITLE4=Neon
TTITLE5=City Love
TTITLE6=83
TTITLE7=3x5
TTITLE8=Love Song For No One
TTITLE9=Back To You
TTITLE10=Great Indoors
TTITLE11=Not Myself
TTITLE12=Unknown
TTITLE13=St. Patrick's Day
TTITLE14=Come Away With Me
TTITLE15=Don't Know Why
TTITLE16=The Long Day Is Over
EXTD=YEAR: 2002
EXTT0=
EXTT1=
EXTT2=
EXTT3=
EXTT4=
EXTT5=
EXTT6=
EXTT7=
EXTT8=
EXTT9=
EXTT10=
EXTT11=
EXTT12=
EXTT13=
EXTT14=
EXTT15=
EXTT16=
PLAYORDER=
